<svg width="172" height="172" viewBox="0 0 172 172" fill="none" xmlns="http://www.w3.org/2000/svg">
<rect width="171.549" height="171.549" rx="41.0445" fill="#F8F8FF"/>
<rect width="171.549" height="171.549" rx="41.0445" fill="url(#paint0_linear_1086_9729)"/>
<path d="M114.623 76.9049C114.49 76.5442 114.25 76.2329 113.935 76.013C113.619 75.7931 113.244 75.6752 112.859 75.6752H112.854C113.634 74.6387 114.19 73.4519 114.488 72.1898C114.786 70.9276 114.819 69.6174 114.586 68.3418C114.352 67.0661 113.857 65.8527 113.131 64.7779C112.405 63.7031 111.465 62.7903 110.369 62.097C111.057 60.2876 111.169 58.31 110.69 56.4344C110.211 54.5589 109.165 52.8769 107.695 51.6184C106.224 50.3598 104.4 49.5861 102.473 49.4029C100.546 49.2198 98.6099 49.6361 96.9285 50.595C96.0633 48.5569 94.6174 46.8184 92.771 45.5964C90.9247 44.3743 88.7595 43.7227 86.5453 43.7227C84.3311 43.7227 82.1659 44.3743 80.3196 45.5964C78.4732 46.8184 77.0273 48.5569 76.1621 50.595C74.4805 49.6379 72.5446 49.223 70.6185 49.4069C68.6923 49.5908 66.8699 50.3646 65.3998 51.6227C63.9298 52.8807 62.8838 54.5618 62.4045 56.4364C61.9253 58.311 62.0362 60.2878 62.722 62.097C61.094 63.1297 59.8225 64.6374 59.0794 66.4164C58.3363 68.1953 58.1575 70.1596 58.5673 72.0434L62.2406 71.2446C61.9478 69.8994 62.1564 68.4935 62.8273 67.2913C63.4982 66.0891 64.5851 65.1733 65.8837 64.7162C66.1546 64.6213 66.4002 64.4656 66.6016 64.2611C66.803 64.0566 66.9549 63.8087 67.0456 63.5364C67.1364 63.264 67.1635 62.9746 67.125 62.6901C67.0865 62.4057 66.9834 62.1338 66.8235 61.8954C66.0578 60.7534 65.7359 59.3709 65.9186 58.0081C66.1012 56.6453 66.7757 55.3963 67.8151 54.4962C68.8545 53.596 70.1871 53.1069 71.562 53.1209C72.9369 53.1348 74.2592 53.6509 75.2801 54.5719C75.2747 54.7148 75.2693 54.8576 75.2693 55.0007C75.2666 56.5532 75.5866 58.0894 76.2091 59.5117L79.6539 58.0066C79.2389 57.0587 79.0255 56.0348 79.0273 55C79.028 54.6991 79.0465 54.3984 79.0827 54.0997L79.0839 54.0938C79.3047 52.2702 80.1857 50.5906 81.5605 49.3723C82.9353 48.1539 84.7086 47.4812 86.5455 47.4812C88.3825 47.4812 90.1558 48.1539 91.5306 49.3723C92.9053 50.5906 93.7864 52.2702 94.0072 54.0938C94.0507 54.4561 94.1987 54.7979 94.4332 55.0775C94.6676 55.3572 94.9784 55.5625 95.3276 55.6684C95.6768 55.7744 96.0493 55.7764 96.3996 55.6742C96.7499 55.572 97.0629 55.3701 97.3004 55.093C98.2367 54.0053 99.5524 53.3155 100.98 53.1642C102.407 53.0129 103.838 53.4115 104.981 54.2787C106.125 55.146 106.895 56.4166 107.134 57.8317C107.373 59.2468 107.064 60.6998 106.269 61.8947C106.109 62.1331 106.006 62.405 105.967 62.6894C105.929 62.9739 105.956 63.2633 106.047 63.5357C106.137 63.808 106.289 64.0559 106.491 64.2604C106.692 64.4649 106.938 64.6206 107.209 64.7155C108.465 65.1561 109.525 66.0271 110.201 67.1744C110.877 68.3216 111.125 69.671 110.901 70.9836C110.678 72.2962 109.997 73.4873 108.979 74.346C107.961 75.2047 106.673 75.6756 105.341 75.6752H87.0676C86.7584 75.1931 86.5805 74.6386 86.5515 74.0666C86.5224 73.4946 86.6432 72.925 86.9019 72.414C87.1606 71.903 87.5483 71.4684 88.0265 71.1533C88.5047 70.8381 89.0569 70.6533 89.6285 70.6171L89.3936 66.8652C88.356 66.9301 87.3456 67.2237 86.435 67.7252C85.5243 68.2266 84.7359 68.9234 84.1264 69.7656C83.5168 70.6077 83.1012 71.5743 82.9094 72.5961C82.7176 73.6178 82.7543 74.6693 83.0169 75.6752H60.2316C59.7331 75.6752 59.255 75.8732 58.9026 76.2257C58.5501 76.5782 58.3521 77.0563 58.3521 77.5548V137.701C58.3521 138.199 58.5501 138.677 58.9026 139.03C59.255 139.382 59.7331 139.58 60.2316 139.58H105.341C108.331 139.577 111.198 138.388 113.312 136.274C115.426 134.159 116.615 131.293 116.619 128.303V115.146H126.016C126.319 115.146 126.618 115.073 126.886 114.933C127.154 114.793 127.385 114.59 127.558 114.342C127.731 114.093 127.842 113.807 127.881 113.506C127.919 113.206 127.885 112.901 127.78 112.617L114.623 76.9049ZM62.1112 94.4709H69.9114C67.6685 96.6205 65.0157 98.2964 62.1112 99.3986V94.4709ZM73.093 90.7118H62.1112V86.9526H75.1803C74.6013 88.267 73.9026 89.5254 73.093 90.7118ZM77.0739 79.4344C76.9732 80.702 76.7689 81.9592 76.4631 83.1935H62.1112V79.4344H77.0739ZM114.739 111.387C114.241 111.387 113.762 111.585 113.41 111.937C113.057 112.29 112.859 112.768 112.859 113.267V118.841C111.286 118.676 109.767 118.166 108.413 117.347C107.059 116.528 105.902 115.421 105.025 114.103L101.898 116.189C103.117 118.022 104.738 119.553 106.637 120.667C108.537 121.781 110.664 122.448 112.859 122.617V128.303C112.857 130.296 112.064 132.207 110.655 133.617C109.245 135.026 107.334 135.819 105.341 135.821H62.1112V103.375C67.2671 101.712 71.8065 98.5424 75.1445 94.2753C78.4824 90.0081 80.4657 84.8391 80.8387 79.4344H111.549L123.32 111.387H114.739Z" fill="#4B369D"/>
<rect x="54.7124" y="41.6228" width="63" height="34" fill="#F8F8FF"/>
<path d="M84.666 44.325H88.4251V49.9636H84.666V44.325Z" fill="#4B369D"/>
<path d="M84.666 36.8066H88.4251V40.5658H84.666V36.8066Z" fill="#4B369D"/>
<path d="M25.1587 86.2776H30.7974V90.0367H25.1587V86.2776Z" fill="#4B369D"/>
<path d="M34.5566 86.2776H49.5932V90.0367H34.5566V86.2776Z" fill="#4B369D"/>
<path d="M19 70.9382L19.7748 67.2621L23.734 68.0966L22.9592 71.7727L19 70.9382Z" fill="#4B369D"/>
<path d="M26.9199 72.6206L27.6947 68.9445L49.4711 73.5342L48.6963 77.2104L26.9199 72.6206Z" fill="#4B369D"/>
<path d="M56.1719 35.6538L59.5325 33.9735L61.4113 37.7309L58.0506 39.4112L56.1719 35.6538Z" fill="#4B369D"/>
<path d="M59.9272 43.1702L63.2879 41.4898L68.9239 52.7619L65.5633 54.4423L59.9272 43.1702Z" fill="#4B369D"/>
<path d="M36.4429 50.5125L38.6388 47.4593L57.1254 60.7556L54.9294 63.8087L36.4429 50.5125Z" fill="#4B369D"/>
<path d="M29.5073 45.5325L31.7033 42.4793L35.7703 45.4045L33.5743 48.4576L29.5073 45.5325Z" fill="#4B369D"/>
<path d="M143.294 86.2776H148.933V90.0367H143.294V86.2776Z" fill="#4B369D"/>
<path d="M124.499 86.2776H139.535V90.0367H124.499V86.2776Z" fill="#4B369D"/>
<path d="M147.413 63.3894L151.17 61.8874L152.564 65.3759L148.807 66.8779L147.413 63.3894Z" fill="#4B369D"/>
<path d="M122.988 73.1509L143.653 64.8895L145.048 68.378L124.383 76.6394L122.988 73.1509Z" fill="#4B369D"/>
<path d="M110.642 35.7573L112.521 31.9999L115.881 33.6802L114.003 37.4377L110.642 35.7573Z" fill="#4B369D"/>
<path d="M103.121 50.7876L108.757 39.5155L112.118 41.1958L106.482 52.4679L103.121 50.7876Z" fill="#4B369D"/>
<path d="M116.827 62.0447L130.625 49.9008L133.109 52.7239L119.312 64.8678L116.827 62.0447Z" fill="#4B369D"/>
<path d="M133.564 47.6665L137.325 44.3566L139.81 47.1797L136.049 50.4896L133.564 47.6665Z" fill="#4B369D"/>
<path d="M99.7029 99.1699C99.7029 100.416 99.2078 101.611 98.3266 102.493C97.4454 103.374 96.2502 103.869 95.0039 103.869C93.7577 103.869 92.5625 103.374 91.6813 102.493C90.8001 101.611 90.305 100.416 90.305 99.1699V96.3506H86.5459V99.1699C86.5459 101.413 87.437 103.564 89.0232 105.151C90.6094 106.737 92.7607 107.628 95.0039 107.628C97.2472 107.628 99.3985 106.737 100.985 105.151C102.571 103.564 103.462 101.413 103.462 99.1699V96.3506H99.7029V99.1699Z" fill="#4B369D"/>
<rect x="62.1123" y="79.4229" width="20" height="25" fill="#F8F8FF"/>
<defs>
<linearGradient id="paint0_linear_1086_9729" x1="171.549" y1="171.549" x2="0" y2="0" gradientUnits="userSpaceOnUse">
<stop stop-color="#BDD0FC" stop-opacity="0.15"/>
<stop offset="1" stop-color="#90A4EC" stop-opacity="0.01"/>
</linearGradient>
</defs>
</svg>
