<svg width="35" height="35" viewBox="0 0 35 35" fill="none" xmlns="http://www.w3.org/2000/svg">
<path d="M19.7363 23.5972C19.1014 23.7902 18.4416 23.8884 17.778 23.8889C16.4595 23.8889 15.1705 23.4979 14.0742 22.7653C12.9779 22.0328 12.1234 20.9916 11.6188 19.7734C11.1142 18.5553 10.9822 17.2148 11.2394 15.9216C11.4967 14.6284 12.1316 13.4405 13.064 12.5082C13.9963 11.5758 15.1842 10.9409 16.4774 10.6836C17.7706 10.4264 19.111 10.5584 20.3292 11.063C21.5474 11.5676 22.5886 12.4221 23.3211 13.5184C24.0537 14.6147 24.4447 15.9037 24.4447 17.2222C24.4442 17.8858 24.346 18.5457 24.153 19.1805L19.7363 23.5972Z" stroke="#4B369D" stroke-width="2" stroke-linecap="round" stroke-linejoin="round"/>
<path d="M15.2777 16.6667C15.7379 16.6667 16.111 16.2936 16.111 15.8333C16.111 15.3731 15.7379 15 15.2777 15C14.8174 15 14.4443 15.3731 14.4443 15.8333C14.4443 16.2936 14.8174 16.6667 15.2777 16.6667Z" fill="#4B369D"/>
<path d="M20.2777 16.6667C20.7379 16.6667 21.111 16.2936 21.111 15.8333C21.111 15.3731 20.7379 15 20.2777 15C19.8174 15 19.4443 15.3731 19.4443 15.8333C19.4443 16.2936 19.8174 16.6667 20.2777 16.6667Z" fill="#4B369D"/>
<path d="M20.6664 18.8889C20.3728 19.3949 19.9513 19.8148 19.4443 20.1068C18.9374 20.3987 18.3626 20.5524 17.7776 20.5524C17.1925 20.5524 16.6178 20.3987 16.1108 20.1068C15.6038 19.8148 15.1824 19.3949 14.8887 18.8889" stroke="#4B369D" stroke-width="2" stroke-linecap="round" stroke-linejoin="round"/>
<path d="M19.1406 6.5625H15.8594" stroke="#4B369D" stroke-width="2" stroke-linecap="round" stroke-linejoin="round"/>
<path d="M15.8594 28.4375H19.1406" stroke="#4B369D" stroke-width="2" stroke-linecap="round" stroke-linejoin="round"/>
<path d="M24.6094 6.5625H27.3438C27.6338 6.5625 27.912 6.67773 28.1171 6.88285C28.3223 7.08797 28.4375 7.36617 28.4375 7.65625V10.3906" stroke="#4B369D" stroke-width="2" stroke-linecap="round" stroke-linejoin="round"/>
<path d="M28.4375 19.1406V15.8594" stroke="#4B369D" stroke-width="2" stroke-linecap="round" stroke-linejoin="round"/>
<path d="M6.5625 15.8594V19.1406" stroke="#4B369D" stroke-width="2" stroke-linecap="round" stroke-linejoin="round"/>
<path d="M10.3906 28.4375H7.65625C7.36617 28.4375 7.08797 28.3223 6.88285 28.1171C6.67773 27.912 6.5625 27.6338 6.5625 27.3438V24.6094" stroke="#4B369D" stroke-width="2" stroke-linecap="round" stroke-linejoin="round"/>
<path d="M10.3906 6.5625H7.65625C7.36617 6.5625 7.08797 6.67773 6.88285 6.88285C6.67773 7.08797 6.5625 7.36617 6.5625 7.65625V10.3906" stroke="#4B369D" stroke-width="2" stroke-linecap="round" stroke-linejoin="round"/>
<path d="M28.4375 24.6094V32.2656" stroke="#4B369D" stroke-width="2" stroke-linecap="round" stroke-linejoin="round"/>
<path d="M32.2656 28.4375H24.6094" stroke="#4B369D" stroke-width="2" stroke-linecap="round" stroke-linejoin="round"/>
</svg>
