<svg width="224" height="150" viewBox="0 0 224 150" fill="none" xmlns="http://www.w3.org/2000/svg">
<g clip-path="url(#clip0_942_9461)">
<path d="M224 79.7227C224 110.063 204.752 135.915 177.792 145.751C173.69 147.251 169.457 148.361 165.147 149.067C153.291 151.01 141.134 149.907 129.822 145.862C102.692 136.106 83.3026 110.168 83.3154 79.7078C83.3154 40.9104 114.81 9.44539 153.658 9.44539C168.34 9.42405 182.657 14.013 194.586 22.5638C212.396 35.3117 224 56.1627 224 79.7227Z" fill="#E5E5E5"/>
<path d="M177.791 145.751C173.69 147.251 169.457 148.361 165.147 149.067C153.29 151.01 141.134 149.907 129.822 145.862L133.071 132.839L133.267 132.058L139.896 132.083L173.2 132.203L173.626 133.461L177.791 145.751Z" fill="#2F2E41"/>
<path d="M61.1021 0H0V69.0751H61.1021V0Z" fill="#E6E6E6"/>
<path d="M59.9062 1.46143H1.08984V67.6141H59.9062V1.46143Z" fill="white"/>
<path d="M30.5508 65.2618C32.3717 65.2618 33.8477 63.7871 33.8477 61.9679C33.8477 60.1488 32.3717 58.6741 30.5508 58.6741C28.73 58.6741 27.2539 60.1488 27.2539 61.9679C27.2539 63.7871 28.73 65.2618 30.5508 65.2618Z" fill="#E6E6E6"/>
<path d="M29.994 24.8779H11.0576V26.8133H29.994V24.8779Z" fill="#E6E6E6"/>
<path d="M39.6377 30.6775H11.0576V32.6129H39.6377V30.6775Z" fill="#6C63FF"/>
<path d="M36.8323 36.5134H11.0576V38.4488H36.8323V36.5134Z" fill="#E6E6E6"/>
<path d="M50.8592 42.1953H11.0576V44.1307H50.8592V42.1953Z" fill="#6C63FF"/>
<path d="M43.9091 47.6064H11.4717V49.5418H43.9091V47.6064Z" fill="#E6E6E6"/>
<path d="M86.8848 112.399C87.1171 112.637 87.3303 112.894 87.5223 113.166L117.388 112.436L120.872 106.075L131.167 110.074L126.094 121.933C125.684 122.891 124.975 123.69 124.071 124.211C123.168 124.732 122.12 124.946 121.085 124.821L87.342 120.748C86.5461 121.755 85.4622 122.496 84.2346 122.872C83.007 123.248 81.6938 123.242 80.4697 122.855C79.2456 122.467 78.1687 121.716 77.382 120.702C76.5954 119.688 76.1364 118.459 76.0661 117.178C75.9958 115.897 76.3175 114.625 76.9885 113.531C77.6594 112.437 78.6478 111.574 79.8221 111.055C80.9964 110.536 82.3011 110.386 83.5625 110.626C84.8239 110.866 85.9824 111.484 86.8837 112.398L86.8848 112.399Z" fill="#9F616A"/>
<path d="M127.082 76.0785L141.059 71.5022L145.164 65.8777L165.14 67.0588L168.073 73.6222L178.725 78.6509L177.088 109.024L174.287 137.45C159.887 130 133.011 135.68 132.776 135.772L127.082 76.0785Z" fill="#6C63FF"/>
<path d="M130.07 117.191L115.854 111.508L115.914 111.255C115.975 111 122.026 85.7387 122.829 81.6792C123.666 77.45 126.724 76.2807 126.854 76.2332L126.948 76.1982L132.575 77.9092L135.045 97.3059L130.07 117.191Z" fill="#6C63FF"/>
<path d="M160.766 136.2C161.099 136.192 161.432 136.211 161.762 136.255L181.532 113.879L179.233 107.003L189.168 102.179L194.423 113.959C194.848 114.91 194.952 115.974 194.72 116.99C194.488 118.005 193.932 118.919 193.137 119.592L167.206 141.543C167.404 142.81 167.21 144.108 166.652 145.263C166.093 146.418 165.196 147.376 164.079 148.009C162.962 148.642 161.679 148.921 160.4 148.808C159.121 148.694 157.907 148.195 156.919 147.375C155.931 146.556 155.216 145.455 154.869 144.22C154.523 142.985 154.561 141.673 154.978 140.46C155.396 139.247 156.173 138.19 157.207 137.429C158.241 136.668 159.482 136.239 160.766 136.2Z" fill="#9F616A"/>
<path d="M179.955 116.057L171.708 96.6762L174.925 83.1764L178.39 78.802C178.644 78.6935 178.918 78.6389 179.194 78.6414C179.47 78.644 179.742 78.7037 179.994 78.8169C181.273 79.3307 182.36 80.906 183.229 83.4986L190.958 105.493L179.955 116.057Z" fill="#6C63FF"/>
<path d="M137.167 58.6961V44.0848C137.159 41.5136 137.657 38.966 138.634 36.5872C139.611 34.2085 141.047 32.0454 142.861 30.2212C144.675 28.3971 146.83 26.9478 149.205 25.956C151.579 24.9642 154.126 24.4493 156.699 24.4408C159.273 24.4323 161.823 24.9303 164.204 25.9063C166.585 26.8824 168.75 28.3174 170.576 30.1295C172.402 31.9416 173.852 34.0952 174.845 36.4674C175.838 38.8396 176.353 41.3839 176.362 43.9551C176.362 43.9983 176.362 44.0415 176.362 44.0848V58.6961C176.361 59.3934 176.083 60.0619 175.59 60.5549C175.096 61.048 174.427 61.3254 173.729 61.3261H139.8C139.102 61.3254 138.433 61.048 137.939 60.5549C137.445 60.0619 137.168 59.3934 137.167 58.6961Z" fill="#2F2E41"/>
<path d="M152.738 60.9857C160.673 60.9857 167.106 54.5589 167.106 46.631C167.106 38.7032 160.673 32.2764 152.738 32.2764C144.803 32.2764 138.37 38.7032 138.37 46.631C138.37 54.5589 144.803 60.9857 152.738 60.9857Z" fill="#9F616A"/>
<path d="M132.531 45.2537C132.536 41.1474 134.171 37.2106 137.077 34.3071C139.983 31.4035 143.924 29.7702 148.034 29.7656H150.959C155.069 29.7702 159.009 31.4035 161.915 34.3071C164.822 37.2107 166.456 41.1474 166.461 45.2537V45.5458H160.279L158.171 39.6468L157.749 45.5458H154.555L153.491 42.5699L153.278 45.5458H132.531V45.2537Z" fill="#2F2E41"/>
<path d="M151.324 62.9693C151.033 62.5767 150.86 62.1101 150.824 61.6234C150.787 61.1367 150.889 60.6496 151.118 60.2182C154.217 54.3281 158.557 43.4443 152.797 36.7322L152.383 36.2505H169.107V61.3352L153.915 64.0132C153.761 64.0404 153.605 64.0541 153.449 64.0543C153.035 64.0543 152.626 63.956 152.256 63.7675C151.887 63.579 151.568 63.3057 151.325 62.9699L151.324 62.9693Z" fill="#2F2E41"/>
<path d="M30.4977 5.37988C29.111 5.37981 27.7555 5.79055 26.6025 6.56015C25.4495 7.32976 24.5509 8.42366 24.0201 9.70354C23.4894 10.9834 23.3505 12.3918 23.621 13.7505C23.8914 15.1093 24.5591 16.3574 25.5395 17.337C26.52 18.3167 27.7692 18.9839 29.1292 19.2542C30.4892 19.5246 31.8988 19.3859 33.18 18.8558C34.4611 18.3257 35.5561 17.428 36.3265 16.2762C37.097 15.1243 37.5082 13.7701 37.5083 12.3847V12.3844C37.5083 11.4645 37.3269 10.5537 36.9746 9.70387C36.6223 8.85405 36.1058 8.08188 35.4548 7.43145C34.8038 6.78102 34.0309 6.26507 33.1803 5.91307C32.3297 5.56106 31.418 5.37988 30.4973 5.37988H30.4977ZM30.4977 7.48104C30.9136 7.48104 31.3202 7.60427 31.6661 7.83515C32.0119 8.06602 32.2815 8.39418 32.4407 8.77812C32.5999 9.16205 32.6415 9.58453 32.5604 9.99211C32.4792 10.3997 32.2789 10.7741 31.9848 11.0679C31.6907 11.3618 31.3159 11.5619 30.908 11.643C30.5 11.7241 30.0771 11.6825 29.6929 11.5234C29.3086 11.3644 28.9801 11.0951 28.749 10.7496C28.5179 10.404 28.3946 9.99778 28.3946 9.58221C28.3946 9.02495 28.6161 8.49051 29.0105 8.09646C29.405 7.70242 29.9399 7.48105 30.4977 7.48104ZM30.4977 17.597C29.6668 17.5932 28.8494 17.3869 28.1163 16.9961C27.3833 16.6052 26.7568 16.0416 26.2911 15.3541C26.3249 13.9532 29.0955 13.1821 30.4977 13.1821C31.8999 13.1821 34.6705 13.9532 34.7043 15.3541C34.2381 16.0411 33.6114 16.6043 32.8785 16.9951C32.1456 17.3859 31.3284 17.5925 30.4977 17.597Z" fill="#6C63FF"/>
<path d="M30.5795 63.2305C33.4678 57.9424 40.3869 54.5936 46.0469 57.6121C48.5946 58.9706 50.6198 61.3737 51.2627 64.2139C52.0087 67.5134 50.4367 70.6594 48.8139 73.4313C47.9331 74.9359 46.9679 76.4098 46.2389 77.9968C45.4841 79.6402 44.9446 81.5396 45.5129 83.3274C46.0245 84.9381 47.3073 86.1096 48.712 86.9706C50.2624 87.8849 51.9114 88.6207 53.6276 89.1641C57.1604 90.3379 60.8867 90.8196 64.6021 90.5826C66.4487 90.4573 68.2797 90.1616 70.0717 89.6993C71.978 89.2137 73.8487 88.5982 75.7582 88.1233C78.9462 87.3322 82.5812 86.9388 85.6042 88.528C88.5411 90.0724 89.8554 93.3024 90.2619 96.4446C91.0126 102.247 88.7099 108.268 84.5522 112.332C82.5575 114.281 80.0473 115.892 77.3134 116.551C74.9279 117.126 71.8648 117.089 69.9664 115.307C67.8481 113.319 68.3464 110.13 70.0289 108.032C72.1765 105.356 75.8147 104.713 79.0613 104.647C82.7545 104.573 86.4442 105.123 90.1353 104.781C91.9369 104.641 93.7047 104.215 95.3721 103.519C96.8381 102.875 98.1751 101.971 99.3188 100.851C101.597 98.6392 103.134 95.6926 103.898 92.629C104.819 88.9447 104.618 85.0727 103.904 81.372C103.523 79.4638 103.033 77.5791 102.436 75.7271C102.189 74.9455 100.954 75.2798 101.202 76.0667C103.402 83.0357 104.629 91.0939 100.378 97.5644C98.6195 100.308 95.8795 102.279 92.7168 103.074C89.0384 103.988 85.1785 103.536 81.4388 103.4C77.8829 103.271 73.9783 103.411 70.9301 105.48C68.4296 107.177 66.6806 110.405 67.4365 113.452C68.1653 116.391 70.9922 117.882 73.8195 118.112C76.786 118.353 79.7052 117.358 82.1966 115.803C87.3791 112.567 90.8251 106.877 91.5462 100.844C91.922 97.7004 91.5396 94.3143 90.1127 91.4611C89.3608 89.9165 88.1905 88.6135 86.7348 87.7C85.2831 86.8109 83.6064 86.3732 81.9225 86.2184C78.0967 85.8664 74.421 87.1786 70.7918 88.1825C68.9379 88.7199 67.0375 89.0823 65.1158 89.265C63.2507 89.4194 61.3748 89.3889 59.5157 89.1739C57.671 88.9564 55.853 88.5533 54.0893 87.9707C52.3611 87.4369 50.7064 86.6895 49.1637 85.7458C47.8027 84.8763 46.6256 83.6309 46.5587 81.9338C46.486 80.0936 47.4147 78.3723 48.298 76.8208C50.0432 73.7561 52.1988 70.7585 52.6539 67.1707C53.0525 64.0323 51.7885 60.939 49.6058 58.7006C48.5118 57.5644 47.1949 56.6661 45.7374 56.062C44.2799 55.4579 42.7132 55.161 41.1355 55.1899C37.897 55.2825 34.7962 56.6896 32.4141 58.8505C31.2327 59.9229 30.2385 61.1846 29.4725 62.5837C29.078 63.3059 30.1819 63.9514 30.5769 63.2286L30.5795 63.2305Z" fill="#3F3D56"/>
</g>
<defs>
<clipPath id="clip0_942_9461">
<rect width="224" height="150" fill="white"/>
</clipPath>
</defs>
</svg>
